<svg width="24" height="24" viewBox="0 0 24 24" fill="none" xmlns="http://www.w3.org/2000/svg">
<path d="M6.34323 12.2581L16.7446 19.458C16.8647 19.541 17.0051 19.5896 17.1508 19.5986C17.2965 19.6075 17.4419 19.5765 17.5712 19.5087C17.7005 19.441 17.8088 19.3392 17.8844 19.2143C17.96 19.0895 18 18.9463 18 18.8004V4.40062C18.0001 4.2546 17.9602 4.11134 17.8847 3.98637C17.8092 3.86139 17.7009 3.75947 17.5716 3.69164C17.4422 3.62382 17.2968 3.59267 17.151 3.60159C17.0053 3.61051 16.8647 3.65914 16.7446 3.74223L6.34323 10.9421C6.23726 11.0161 6.15072 11.1145 6.09096 11.229C6.03121 11.3436 6 11.4709 6 11.6001C6 11.7293 6.03121 11.8566 6.09096 11.9712C6.15072 12.0857 6.23726 12.1841 6.34323 12.2581Z" fill="white"/>
</svg>
