<svg width="24" height="24" viewBox="0 0 24 24" fill="none" xmlns="http://www.w3.org/2000/svg">
<path d="M18.991 2H9.01C7.899 2 7 2.899 7 4.01V9.647L2.298 14.289C2.15712 14.4283 2.0608 14.6064 2.02128 14.8006C1.98176 14.9947 2.00082 15.1963 2.07603 15.3796C2.15125 15.5629 2.27923 15.7197 2.44373 15.8302C2.60824 15.9407 2.80185 15.9998 3 16V21C3 21.2652 3.10536 21.5196 3.29289 21.7071C3.48043 21.8946 3.73478 22 4 22H20C20.2652 22 20.5196 21.8946 20.7071 21.7071C20.8946 21.5196 21 21.2652 21 21V4.009C21 2.899 20.102 2 18.991 2ZM10.922 15.111V20H5V14.432L7.987 11.483L10.922 14.486V15.111ZM13 9H11V7H13V9ZM17 17H15V15H17V17ZM17 13H15V11H17V13ZM17 9H15V7H17V9Z" fill="white"/>
<path d="M7 15H9V17H7V15Z" fill="white"/>
</svg>
