<svg width="15" height="15" viewBox="0 0 24 24" fill="none" xmlns="http://www.w3.org/2000/svg">
<path d="M17.6568 11.7419L7.25537 4.54203C7.13533 4.45898 6.99486 4.41035 6.84917 4.4014C6.70347 4.39246 6.5581 4.42353 6.4288 4.49126C6.2995 4.55899 6.1912 4.6608 6.11562 4.78565C6.04003 4.91051 6.00005 5.05367 6 5.19962L6 19.5994C5.9999 19.7454 6.03978 19.8887 6.1153 20.0136C6.19083 20.1386 6.29912 20.2405 6.42845 20.3084C6.55777 20.3762 6.7032 20.4073 6.84897 20.3984C6.99473 20.3895 7.13528 20.3409 7.25537 20.2578L17.6568 13.0579C17.7627 12.9839 17.8493 12.8855 17.909 12.771C17.9688 12.6564 18 12.5291 18 12.3999C18 12.2707 17.9688 12.1434 17.909 12.0288C17.8493 11.9143 17.7627 11.8159 17.6568 11.7419Z" fill="#99B5CD"/>
</svg>
