<svg width="20" height="20" viewBox="0 0 20 20" fill="none" xmlns="http://www.w3.org/2000/svg">
<path fill-rule="evenodd" clip-rule="evenodd" d="M5.83329 1.6665C4.72822 1.6665 3.66842 2.10549 2.88701 2.88689C2.10561 3.66829 1.66663 4.7281 1.66663 5.83317V14.1665C1.66663 15.2716 2.10561 16.3314 2.88701 17.1128C3.66842 17.8942 4.72822 18.3332 5.83329 18.3332H14.1666C15.2717 18.3332 16.3315 17.8942 17.1129 17.1128C17.8943 16.3314 18.3333 15.2716 18.3333 14.1665V5.83317C18.3333 4.7281 17.8943 3.66829 17.1129 2.88689C16.3315 2.10549 15.2717 1.6665 14.1666 1.6665H5.83329ZM13.1083 8.90317C13.1831 8.82328 13.2415 8.72943 13.2801 8.62698C13.3187 8.52453 13.3367 8.41548 13.3332 8.30607C13.3296 8.19665 13.3045 8.089 13.2594 7.98927C13.2142 7.88955 13.1498 7.79969 13.07 7.72484C12.9901 7.64998 12.8962 7.5916 12.7938 7.55301C12.6913 7.51443 12.5823 7.4964 12.4729 7.49996C12.3634 7.50352 12.2558 7.5286 12.1561 7.57376C12.0563 7.61892 11.9665 7.68328 11.8916 7.76317L9.32246 10.5048L8.05329 9.37734C7.88701 9.2391 7.6735 9.17092 7.45788 9.18719C7.24225 9.20345 7.04139 9.3029 6.89773 9.46452C6.75407 9.62614 6.67885 9.83727 6.68798 10.0533C6.6971 10.2694 6.78985 10.4734 6.94663 10.6223L8.82163 12.289C8.98387 12.4331 9.19592 12.5083 9.4127 12.4985C9.62948 12.4887 9.83389 12.3947 9.98246 12.2365L13.1075 8.90317H13.1083Z" fill="white"/>
</svg>
